<?xml version="1.0" encoding="UTF-8"?>
<svg version="1.1" xmlns="http://www.w3.org/2000/svg" width="799" height="878">
<path d="M0 0 C2.14629485 0.92101376 4.14547073 1.55930512 6.42480469 2.04052734 C6.42480469 2.70052734 6.42480469 3.36052734 6.42480469 4.04052734 C7.21757813 4.26224609 8.01035156 4.48396484 8.82714844 4.71240234 C13.51210578 6.44191971 17.6681835 8.80028091 21.98730469 11.29052734 C22.90406982 11.81775391 23.82083496 12.34498047 24.76538086 12.88818359 C48.07561939 26.47074646 70.04534618 42.44280186 89.88964844 60.72412109 C91.95123522 62.60782057 94.04200535 64.42689442 96.17480469 66.22802734 C105.56888415 74.39679209 114.45070363 83.48613747 122.42480469 93.04052734 C123.22789062 93.96607422 124.03097656 94.89162109 124.85839844 95.84521484 C140.68662968 114.14025775 154.35731623 134.09030919 166.42480469 155.04052734 C166.84052734 155.75305664 167.25625 156.46558594 167.68457031 157.19970703 C200.43840694 213.60909234 216.71375541 279.35092918 216.61230469 344.41552734 C216.6113681 345.20110016 216.61043152 345.98667297 216.60946655 346.79605103 C216.45476718 407.11737729 202.31817877 466.56656223 174.41357422 520.13232422 C173.39985198 522.08868299 172.40971883 524.05585584 171.42089844 526.02490234 C157.4800837 553.44988369 139.10683792 578.11012769 118.44824219 600.79833984 C116.69138073 602.74513227 114.99260216 604.72588617 113.29980469 606.72802734 C105.10041494 616.13716312 96.00379724 625.04589288 86.42480469 633.04052734 C85.03648437 634.24515625 85.03648437 634.24515625 83.62011719 635.47412109 C63.2825688 653.07135193 40.93753484 668.03031552 17.42480469 681.04052734 C16.68117676 681.45753906 15.93754883 681.87455078 15.17138672 682.30419922 C-26.73469628 705.69788457 -73.25869297 718.66842741 -120.57519531 725.04052734 C-121.54473145 725.17475098 -122.51426758 725.30897461 -123.51318359 725.44726562 C-193.17820815 734.64879497 -266.37669024 720.64862252 -329.57519531 691.04052734 C-330.99010254 690.37947998 -330.99010254 690.37947998 -332.43359375 689.70507812 C-353.3537954 679.83077224 -373.00364931 667.82020417 -391.57519531 654.04052734 C-392.45159668 653.39156494 -392.45159668 653.39156494 -393.34570312 652.72949219 C-409.24898267 640.88168547 -424.07490228 627.7283402 -438.08911133 613.71191406 C-439.63442598 612.16879204 -441.18759977 610.63388429 -442.74121094 609.09912109 C-449.14528268 602.73064518 -454.99039134 596.15042626 -460.57519531 589.04052734 C-464.78125624 583.74999385 -468.34338123 580.33836036 -474.37988281 577.22802734 C-483.90000166 572.07835452 -489.9773735 562.53264704 -493.05566406 552.32568359 C-493.57519531 550.04052734 -493.57519531 550.04052734 -493.87597656 547.59912109 C-494.95631354 538.8653125 -498.99559569 532.52772473 -503.38916016 525.09033203 C-506.77381631 519.24068752 -509.68757767 513.14664932 -512.57519531 507.04052734 C-512.94725098 506.26016113 -513.31930664 505.47979492 -513.70263672 504.67578125 C-537.15645791 454.88887243 -548.06229012 400.32949625 -547.88769531 345.47802734 C-547.88496109 343.69262543 -547.88496109 343.69262543 -547.88217163 341.87115479 C-547.83710434 324.38651247 -547.36670043 307.32807678 -544.57519531 290.04052734 C-544.40890625 288.93386719 -544.24261719 287.82720703 -544.07128906 286.68701172 C-537.71935983 244.83485578 -524.28406078 204.47931267 -504.57519531 167.04052734 C-504.19347168 166.30366699 -503.81174805 165.56680664 -503.41845703 164.80761719 C-493.56816302 145.87443122 -481.86300495 127.75374119 -468.57519531 111.04052734 C-467.86314941 110.13778076 -467.86314941 110.13778076 -467.13671875 109.21679688 C-456.67826951 95.98916895 -445.40134491 83.79167165 -433.53411865 71.82522583 C-432.53761464 70.82002685 -431.54248417 69.8134639 -430.54888916 68.8053894 C-423.90785983 62.07909581 -416.98905726 55.90792618 -409.57519531 50.04052734 C-408.32069521 49.01549961 -407.06784227 47.98844926 -405.81738281 46.95849609 C-349.49561609 1.09554856 -282.89618923 -24.63959892 -211.57519531 -34.95947266 C-210.54168945 -35.10932617 -209.50818359 -35.25917969 -208.44335938 -35.41357422 C-137.97100406 -44.95750099 -63.82318292 -30.09649916 0 0 Z " fill="#0A7AA5" transform="translate(582.5751953125,36.95947265625)"/>
<path d="M0 0 C2.14629485 0.92101376 4.14547073 1.55930512 6.42480469 2.04052734 C5.02014439 5.70889982 3.39476107 9.17416688 1.58886719 12.66162109 C0.74364502 14.29502441 0.74364502 14.29502441 -0.11865234 15.96142578 C-0.72306152 17.1219043 -1.3274707 18.28238281 -1.95019531 19.47802734 C-2.26132263 20.07699829 -2.57244995 20.67596924 -2.89300537 21.29309082 C-7.5446748 30.24567435 -12.31113251 39.13038089 -17.17431641 47.9699707 C-20.73076011 54.44841121 -24.17514514 60.97879468 -27.57519531 67.54052734 C-31.96580963 76.01314137 -36.48064236 84.40747393 -41.07519531 92.77099609 C-44.66126145 99.31743454 -48.14074381 105.91343206 -51.57519531 112.54052734 C-55.36887117 119.85795148 -59.23069862 127.12947832 -63.20019531 134.35302734 C-68.35672586 143.74155244 -73.38551755 153.1942284 -78.38769531 162.66552734 C-85.79200586 176.68293822 -93.24939356 190.67023206 -100.74853516 204.63720703 C-103.861099 210.43634362 -106.96785104 216.2385928 -110.07519531 222.04052734 C-113.79989441 228.99465325 -117.52532889 235.94837867 -121.25488281 242.89990234 C-126.47826301 252.63868904 -131.69878744 262.37866486 -136.87597656 272.14208984 C-137.23735718 272.82360107 -137.59873779 273.5051123 -137.97106934 274.20727539 C-138.70259008 275.58694712 -139.43409641 276.96662649 -140.16558838 278.34631348 C-145.7072897 288.79831672 -151.28567557 299.22579415 -156.97827148 309.59667969 C-161.41792831 317.70558008 -165.74739779 325.87160753 -170.07519531 334.04052734 C-178.69275429 350.30143682 -187.40824071 366.49997486 -196.50170898 382.50073242 C-198.76679364 386.51627368 -200.86598249 390.58254408 -202.88769531 394.72802734 C-207.19272555 403.46674389 -212.07721278 411.86379877 -216.97363281 420.28173828 C-218.52775762 422.95881302 -220.06765367 425.64368086 -221.60644531 428.32958984 C-233.57629995 449.06666243 -246.79088352 469.19439538 -261.57519531 488.04052734 C-262.60773438 489.37277344 -262.60773438 489.37277344 -263.66113281 490.73193359 C-265.59978861 493.19679597 -267.57918413 495.62192022 -269.57519531 498.04052734 C-270.34992188 499.00087891 -271.12464844 499.96123047 -271.92285156 500.95068359 C-278.54701318 509.01621942 -285.78158829 516.46109392 -293.13769531 523.85302734 C-293.62029816 524.34080658 -294.102901 524.82858582 -294.60012817 525.33114624 C-331.57529966 562.61858284 -379.64627893 585.07781791 -432.36865234 585.33569336 C-433.99927457 585.34719944 -435.62985953 585.36762973 -437.26025391 585.3972168 C-453.67145495 585.69352555 -469.21426901 583.35395834 -481.87988281 571.89599609 C-488.05258477 565.1401587 -492.74826007 556.75266405 -493.87597656 547.59912109 C-494.95631354 538.8653125 -498.99559569 532.52772473 -503.38916016 525.09033203 C-506.77381631 519.24068752 -509.68757767 513.14664932 -512.57519531 507.04052734 C-512.94725098 506.26016113 -513.31930664 505.47979492 -513.70263672 504.67578125 C-537.15645791 454.88887243 -548.06229012 400.32949625 -547.88769531 345.47802734 C-547.88496109 343.69262543 -547.88496109 343.69262543 -547.88217163 341.87115479 C-547.83710434 324.38651247 -547.36670043 307.32807678 -544.57519531 290.04052734 C-544.40890625 288.93386719 -544.24261719 287.82720703 -544.07128906 286.68701172 C-537.71935983 244.83485578 -524.28406078 204.47931267 -504.57519531 167.04052734 C-504.19347168 166.30366699 -503.81174805 165.56680664 -503.41845703 164.80761719 C-493.56816302 145.87443122 -481.86300495 127.75374119 -468.57519531 111.04052734 C-467.86314941 110.13778076 -467.86314941 110.13778076 -467.13671875 109.21679688 C-456.67826951 95.98916895 -445.40134491 83.79167165 -433.53411865 71.82522583 C-432.53761464 70.82002685 -431.54248417 69.8134639 -430.54888916 68.8053894 C-423.90785983 62.07909581 -416.98905726 55.90792618 -409.57519531 50.04052734 C-408.32069521 49.01549961 -407.06784227 47.98844926 -405.81738281 46.95849609 C-349.49561609 1.09554856 -282.89618923 -24.63959892 -211.57519531 -34.95947266 C-210.54168945 -35.10932617 -209.50818359 -35.25917969 -208.44335938 -35.41357422 C-137.97100406 -44.95750099 -63.82318292 -30.09649916 0 0 Z " fill="#FEFEFE" transform="translate(582.5751953125,36.95947265625)"/>
<path d="M0 0 C0.33 0.66 0.66 1.32 1 2 C-24.08 2.33 -49.16 2.66 -75 3 C-79.29 11.25 -83.58 19.5 -88 28 C-93.800477 38.64483142 -93.800477 38.64483142 -96.62109375 43.77734375 C-99.27895045 48.64424347 -101.88371249 53.5376485 -104.47265625 58.44140625 C-104.86567429 59.18571396 -105.25869232 59.93002167 -105.66362 60.69688416 C-107.61521868 64.3953913 -109.56297468 68.09587676 -111.5065918 71.79858398 C-124.68648647 96.85766711 -124.68648647 96.85766711 -133.17578125 107.3984375 C-136.51613054 111.6094034 -139.65056251 115.96706099 -142.8125 120.3125 C-148.83543871 128.55116955 -155.16763438 136.48515113 -161.65771484 144.35791016 C-163.39298677 146.48076192 -165.07739804 148.64003998 -166.75 150.8125 C-173.73714028 159.87180689 -181.14163336 168.59634416 -188.55859375 177.30419922 C-190.00199616 179.00234846 -191.43881423 180.70590193 -192.875 182.41015625 C-199.7379725 190.52376079 -206.87617232 198.33461594 -214.17480469 206.05712891 C-216.02826375 208.030086 -217.86366377 210.0185107 -219.6953125 212.01171875 C-227.56693563 220.55140562 -235.71502726 228.64758926 -244.31005859 236.45849609 C-245.84934116 237.86257441 -247.37283799 239.28390921 -248.89453125 240.70703125 C-255.93177912 247.24971411 -263.3379197 253.21362043 -271 259 C-271.56589844 259.42812988 -272.13179688 259.85625977 -272.71484375 260.29736328 C-292.86892318 275.418741 -316.14243148 290.0017515 -342.203125 289.4296875 C-346.50200769 288.76924463 -348.19985192 287.26683943 -351 284 C-354.42997047 277.14005905 -352.1596807 267.16545796 -349.9375 260.1875 C-349.01503803 257.43568725 -348.02554455 254.71494316 -347 252 C-346.63044189 251.01290039 -346.63044189 251.01290039 -346.25341797 250.00585938 C-339.86350387 233.21328048 -332.03123922 216.77995885 -322.89453125 201.31640625 C-320.777248 197.61006918 -318.87730534 193.83157929 -317 190 C-314.17692481 184.24272123 -311.14921976 178.66614101 -307.91870117 173.12866211 C-305.7238817 169.34013168 -303.72670995 165.49936036 -301.8125 161.5625 C-298.20223261 154.21888792 -294.17272326 147.13813333 -290.11938477 140.03149414 C-286.24540204 133.23141219 -282.47038016 126.38515801 -278.75 119.5 C-275.18566811 112.92198935 -271.5359646 106.42890517 -267.64575195 100.03881836 C-242.72001093 62.9166405 -242.72001093 62.9166405 -237.54296875 20.1953125 C-240.1892791 11.510736 -245.71567078 5.24947946 -253 0 C-274.57732736 -11.25650324 -299.65123525 -8.36269162 -322.1953125 -1.45703125 C-332.97595321 2.04342918 -343.05089131 6.60320231 -353 12 C-354.16789063 12.61488281 -355.33578125 13.22976562 -356.5390625 13.86328125 C-373.00874099 22.84167257 -387.71458094 35.14277229 -401.5234375 47.74609375 C-403.20252205 49.2742196 -404.89580823 50.78685858 -406.6015625 52.28515625 C-411.06884904 56.2193376 -415.21614408 60.18257555 -419.046875 64.73828125 C-421.00079989 67.00092627 -423.04199653 69.16405402 -425.1027832 71.32910156 C-432.73296454 79.39127232 -439.44796496 88.04902569 -446 97 C-446.43473633 97.59345215 -446.86947266 98.1869043 -447.31738281 98.79833984 C-463.3020579 120.37872503 -463.3020579 120.37872503 -467 146 C-462.54759867 155.83238627 -451.85154936 159.71865862 -442.51171875 163.6796875 C-439.1572718 165.17596102 -439.1572718 165.17596102 -436 165 C-435.6596875 164.1028125 -435.319375 163.205625 -434.96875 162.28125 C-425.97782872 138.96243199 -413.53490807 117.57175695 -398 98 C-397.21882812 97.00613281 -396.43765625 96.01226562 -395.6328125 94.98828125 C-390.06408457 88.04223449 -384.12711328 81.45266013 -378 75 C-377.49452637 74.46584473 -376.98905273 73.93168945 -376.46826172 73.38134766 C-347.8781951 43.38272771 -347.8781951 43.38272771 -330.90234375 40.6640625 C-327.69810769 40.60035999 -325.34912266 40.8167106 -322.5 42.3125 C-319.33157196 47.9892669 -320.35694083 53.90389898 -322 59.984375 C-327.86761131 79.54085932 -338.10679296 97.30862518 -348.23193359 114.90332031 C-351.37386229 120.40625094 -354.43275906 125.95520572 -357.5 131.5 C-361.56410483 138.84002276 -365.65212983 146.16369883 -369.81274414 153.44946289 C-376.36036094 164.9249313 -382.59647042 176.54935746 -388.76416016 188.23168945 C-392.39120224 195.09996251 -396.0449542 201.94826069 -399.79956055 208.74804688 C-422.89929962 249.11028714 -422.89929962 249.11028714 -433 294 C-433.07734375 295.70929688 -433.07734375 295.70929688 -433.15625 297.453125 C-433.51556021 312.24472858 -430.20627201 327.34015745 -419.73828125 338.484375 C-406.54603538 349.98682758 -388.96016162 353.39459709 -372 353.1875 C-370.99710938 353.18685547 -369.99421875 353.18621094 -368.9609375 353.18554688 C-321.46361678 352.90939966 -279.2650171 325.07542186 -245.3125 294.09375 C-243.34344409 292.31095614 -241.34109798 290.58881553 -239.3125 288.875 C-232.5178984 282.98071828 -226.31639547 276.39658408 -220 270 C-220 273.34774005 -220.66017436 274.62728048 -222.203125 277.55078125 C-222.68249512 278.46512939 -223.16186523 279.37947754 -223.65576172 280.3215332 C-224.18186035 281.30855225 -224.70795898 282.29557129 -225.25 283.3125 C-225.79285645 284.34141357 -226.33571289 285.37032715 -226.89501953 286.43041992 C-231.47686298 295.08670371 -236.15968022 303.68718105 -240.87109375 312.2734375 C-243.66767537 317.37668863 -246.4201531 322.5027863 -249.16723633 327.6328125 C-256.25407784 340.8623652 -263.48136434 354.00995816 -271 367 C-271.50313721 367.90306885 -272.00627441 368.8061377 -272.5246582 369.73657227 C-274 372 -274 372 -276.25 372.8203125 C-277.1575 372.92085938 -278.065 373.02140625 -279 373.125 C-280.07507813 373.26550781 -281.15015625 373.40601563 -282.2578125 373.55078125 C-284.11019531 373.77314453 -284.11019531 373.77314453 -286 374 C-305.71127073 376.73534655 -325.03190102 380.96648827 -344 387 C-344.75297363 387.2386377 -345.50594727 387.47727539 -346.28173828 387.72314453 C-348.62854749 388.47254169 -350.97127516 389.23334522 -353.3125 390 C-354.35132324 390.33729126 -354.35132324 390.33729126 -355.41113281 390.68139648 C-408.22054408 408.31556872 -460.56766227 443.40491435 -486.09765625 494.11328125 C-486.73445379 495.40753755 -487.36888746 496.70296205 -488 498 C-488.43183594 498.88042969 -488.86367188 499.76085937 -489.30859375 500.66796875 C-494.37514209 512.12191655 -496.51275097 525.57514971 -497 538 C-534.1480179 503.78543184 -546.88903833 418.34067174 -550 371 C-550.14506795 366.99959557 -550.18604838 363.00281496 -550.203125 359 C-550.21013931 357.89377289 -550.21715363 356.78754578 -550.22438049 355.64779663 C-550.24178379 352.09848917 -550.2482326 348.54934856 -550.25 345 C-550.25067474 343.78725403 -550.25134949 342.57450806 -550.25204468 341.32501221 C-550.23643194 323.68320073 -549.81753957 306.44877855 -547 289 C-546.83371094 287.89333984 -546.66742187 286.78667969 -546.49609375 285.64648438 C-540.14416452 243.79432843 -526.70886546 203.43878532 -507 166 C-506.61827637 165.26313965 -506.23655273 164.5262793 -505.84326172 163.76708984 C-495.99296771 144.83390388 -484.28780963 126.71321385 -471 110 C-470.2879541 109.09725342 -470.2879541 109.09725342 -469.56152344 108.17626953 C-459.1030742 94.94864161 -447.82614959 82.75114431 -435.95892334 70.78469849 C-434.96241933 69.7794995 -433.96728886 68.77293656 -432.97369385 67.76486206 C-426.33266452 61.03856847 -419.41386194 54.86739883 -412 49 C-410.74549989 47.97497226 -409.49264696 46.94792192 -408.2421875 45.91796875 C-351.92042078 0.05502122 -285.32099392 -25.68012627 -214 -36 C-212.96649414 -36.14985352 -211.93298828 -36.29970703 -210.86816406 -36.45410156 C-142.35439346 -45.73278122 -60.96885384 -33.75890501 0 0 Z " fill="#0A7AA5" transform="translate(585,38)"/>
<path d="M0 0 C13.53 0 27.06 0 41 0 C32.15115716 19.05904611 32.15115716 19.05904611 26.66015625 28.15234375 C24.90119462 31.16948029 23.3490479 34.23896128 21.8125 37.375 C18.82615096 43.44746474 15.63743538 49.38419186 12.375 55.3125 C7.3166032 64.5131555 2.4291967 73.7932225 -2.39575195 83.11816406 C-6.53305905 91.11380194 -10.73342386 99.07267575 -15 107 C-14.35675781 106.3709375 -13.71351563 105.741875 -13.05078125 105.09375 C-6.19122573 98.59625376 0.72340565 93.64349189 9 89 C9.76570312 88.566875 10.53140625 88.13375 11.3203125 87.6875 C21.13974869 82.45046737 32.33656323 81.45118536 43.25 83.625 C52.83483287 87.13943872 59.20069458 91.85465689 64 101 C69.57902986 113.71221803 67.8597766 129.08156403 64 142 C63.69449219 143.09828125 63.38898438 144.1965625 63.07421875 145.328125 C57.45745734 163.87364994 48.16735508 181.2345679 37 197 C36.60522461 197.56831543 36.21044922 198.13663086 35.80371094 198.72216797 C18.35367805 223.62866039 -8.90637471 246.10891885 -39.5703125 251.64453125 C-51.7222184 252.90401125 -62.35692816 252.69535377 -72.2109375 244.8828125 C-74.91566788 242.03634953 -76.42349724 238.84022131 -77.9921875 235.26953125 C-79.01430822 232.79515246 -79.01430822 232.79515246 -81 230 C-84.96 237.26 -88.92 244.52 -93 252 C-106.53 252 -120.06 252 -134 252 C-132.51839948 248.29599869 -130.98931338 244.90374176 -129.1640625 241.37890625 C-128.60106445 240.29085693 -128.03806641 239.20280762 -127.45800781 238.08178711 C-126.85311523 236.92042236 -126.24822266 235.75905762 -125.625 234.5625 C-125.31187866 233.95987335 -124.99875732 233.3572467 -124.67614746 232.73635864 C-120.16057736 224.04876953 -115.54337904 215.42203055 -110.82275391 206.84399414 C-106.12116354 198.27868257 -101.55972344 189.64132784 -97 181 C-91.61033269 170.78774319 -86.17974953 160.60383813 -80.6171875 150.484375 C-75.98870545 142.03676296 -71.49609054 133.51851887 -67 125 C-61.6100327 114.78789735 -56.17975314 104.6038447 -50.6171875 94.484375 C-45.98870418 86.03676064 -41.49618195 77.51847267 -37 69 C-31.56942605 58.71193477 -26.10276799 48.44875047 -20.50292969 38.25146484 C-13.54829832 25.56592645 -6.79562692 12.77109197 0 0 Z " fill="#FDFEFE" transform="translate(459,306)"/>
<path d="M0 0 C6.3728509 5.15585884 11.0438721 13.50486358 11.93896484 21.66845703 C13.19074223 42.57748315 7.86413832 60.77756581 -1.3125 79.375 C-1.65152344 80.0654541 -1.99054688 80.7559082 -2.33984375 81.46728516 C-15.54449183 108.0398256 -33.57909782 130.72949372 -58.3125 147.375 C-59.16070313 147.95765625 -60.00890625 148.5403125 -60.8828125 149.140625 C-65.95014414 152.40433012 -71.33332704 154.79583882 -76.875 157.125 C-77.57157715 157.41922852 -78.2681543 157.71345703 -78.98583984 158.01660156 C-91.17985823 162.95602323 -105.81451248 164.83744121 -118.6875 161.5 C-126.28574608 157.97886157 -130.58281596 152.56984827 -133.6875 144.9375 C-134.2432036 143.42173936 -134.79000606 141.9025264 -135.3125 140.375 C-137.94832455 143.65985173 -139.8726929 147.12832584 -141.83203125 150.8515625 C-142.16693069 151.48526764 -142.50183014 152.11897278 -142.84687805 152.7718811 C-143.56698305 154.13526556 -144.2855572 155.49945946 -145.00274658 156.86437988 C-146.91553137 160.50436138 -148.83962886 164.13836376 -150.76171875 167.7734375 C-151.1491626 168.50699463 -151.53660645 169.24055176 -151.93579102 169.99633789 C-155.40286819 176.55742918 -158.91187498 183.09515955 -162.4375 189.625 C-166.94770577 197.98298315 -171.44386261 206.34827403 -175.92398071 214.72241211 C-183.00865404 227.96465618 -190.14915531 241.17512889 -197.3125 254.375 C-210.8425 254.375 -224.3725 254.375 -238.3125 254.375 C-236.98665848 250.39747543 -235.98033933 247.47964244 -234.01953125 243.9609375 C-233.5620752 243.13239258 -233.10461914 242.30384766 -232.63330078 241.45019531 C-232.13556152 240.55913086 -231.63782227 239.66806641 -231.125 238.75 C-230.03410114 236.77401964 -228.94431004 234.79742741 -227.85546875 232.8203125 C-227.27845215 231.77391602 -226.70143555 230.72751953 -226.10693359 229.64941406 C-223.00917746 223.99674668 -219.97485433 218.31028404 -216.9375 212.625 C-215.66047084 210.23681085 -214.38299319 207.84886174 -213.10546875 205.4609375 C-212.78908447 204.86943909 -212.4727002 204.27794067 -212.14672852 203.66851807 C-207.13365214 194.29899236 -202.08763113 184.94716151 -197.04638672 175.59277344 C-194.13379735 170.18754563 -191.2232577 164.78121432 -188.3125 159.375 C-187.14584304 157.20832811 -185.97917637 155.04166144 -184.8125 152.875 C-184.235 151.8025 -183.6575 150.73 -183.0625 149.625 C-163.8125 113.875 -163.8125 113.875 -162.06274414 110.62548828 C-160.89522485 108.45721491 -159.72774443 106.28892062 -158.56030273 104.12060547 C-155.65699829 98.72834972 -152.7530355 93.33645065 -149.84765625 87.9453125 C-143.82203332 76.76262491 -137.80791269 65.57391627 -131.8125 54.375 C-126.80153437 45.01549778 -121.78231519 35.66053731 -116.75 26.3125 C-116.19054687 25.27287109 -115.63109375 24.23324219 -115.0546875 23.16210938 C-114.25224609 21.67227539 -114.25224609 21.67227539 -113.43359375 20.15234375 C-112.9739624 19.29890381 -112.51433105 18.44546387 -112.04077148 17.56616211 C-109.47565713 12.8298138 -106.89176698 8.10365613 -104.3125 3.375 C-90.7825 3.375 -77.2525 3.375 -63.3125 3.375 C-65.2925 7.665 -67.2725 11.955 -69.3125 16.375 C-67.9821875 15.1684375 -67.9821875 15.1684375 -66.625 13.9375 C-48.01301519 -1.96180686 -23.09380962 -15.39587308 0 0 Z " fill="#FDFEFE" transform="translate(658.3125,400.625)"/>
<path d="M0 0 C-12.92417823 23.54550289 -29.67688945 45.73892207 -47.765625 65.54296875 C-49.23125076 67.15464463 -50.67993549 68.78192582 -52.109375 70.42578125 C-72.07983102 93.27518987 -100.82694312 117.03804047 -132.1953125 120.3359375 C-138.45778433 120.41943712 -142.30771173 120.32184446 -147 116 C-150.20257129 111.19614306 -149.49293545 106.2255124 -148.640625 100.6484375 C-141.03127365 69.9025449 -107.35440873 45.30781267 -81.94140625 29.8828125 C-60.95011392 17.46448736 -38.76571163 8.09453725 -15.125 2.0625 C-14.29871094 1.85077148 -13.47242188 1.63904297 -12.62109375 1.42089844 C-8.32104009 0.37786889 -4.46065272 -0.23665842 0 0 Z " fill="#0B7AA5" transform="translate(288,451)"/>
<path d="M0 0 C2.9375 1.75 2.9375 1.75 5 5 C7.32784477 19.65433705 0.74362322 32.55023405 -6 45 C-6.5465625 46.03125 -7.093125 47.0625 -7.65625 48.125 C-18.13293266 67.02411381 -35.26722524 90.67868224 -56 99 C-59.4412368 99.96849179 -62.44075308 100.48986151 -66 100 C-69.62719906 97.38841668 -70.64949578 95.93566745 -71.43359375 91.60546875 C-72.35636609 72.50687761 -59.85187521 52.88649498 -49 38 C-48.57348145 37.4112207 -48.14696289 36.82244141 -47.70751953 36.21582031 C-37.47188182 22.24727597 -19.51639669 -2.01893759 0 0 Z " fill="#0C7BA5" transform="translate(620,423)"/>
<path d="M0 0 C2.69990662 1.79993774 4.5418865 3.083773 6 6 C8.61763946 27.15567631 -6.74789387 49.77700524 -19.0625 65.875 C-42.83017743 96.21024391 -42.83017743 96.21024391 -58.83984375 99.6015625 C-63.47438995 99.86017154 -63.47438995 99.86017154 -66 99 C-68.66877025 96.42852867 -69.86242221 94.75364306 -70.53125 91.08984375 C-70.29640493 67.39984742 -54.24068938 43.28299281 -39 26 C-38.15824219 25.01386719 -37.31648438 24.02773438 -36.44921875 23.01171875 C-28.22541617 13.54689968 -13.85801821 -2.51963968 0 0 Z " fill="#0C7BA5" transform="translate(475,418)"/>
<path d="M0 0 C5.00769208 0.57932124 8.81942276 2.8651733 13.125 5.3125 C13.91197266 5.7561792 14.69894531 6.1998584 15.50976562 6.65698242 C40.34590142 20.80797547 63.66806654 37.37186054 84.640625 56.82421875 C86.6391708 58.66724857 88.67315493 60.43460726 90.75 62.1875 C100.14407946 70.35626475 109.02589895 79.44561013 117 89 C118.20462891 90.38832031 118.20462891 90.38832031 119.43359375 91.8046875 C135.26182499 110.09973041 148.93251154 130.04978185 161 151 C161.41572266 151.7125293 161.83144531 152.42505859 162.25976562 153.15917969 C195.01360226 209.568565 211.28895072 275.31040183 211.1875 340.375 C211.18656342 341.16057281 211.18562683 341.94614563 211.18466187 342.75552368 C211.02996249 403.07684995 196.89337409 462.52603488 168.98876953 516.09179688 C167.97504729 518.04815564 166.98491414 520.0153285 165.99609375 521.984375 C152.05527902 549.40935635 133.68203323 574.06960035 113.0234375 596.7578125 C111.26657604 598.70460493 109.56779748 600.68535882 107.875 602.6875 C99.67561025 612.09663578 90.57899255 621.00536553 81 629 C79.61167969 630.20462891 79.61167969 630.20462891 78.1953125 631.43359375 C57.85776411 649.03082459 35.51273016 663.98978817 12 677 C11.25637207 677.41701172 10.51274414 677.83402344 9.74658203 678.26367188 C-32.15950096 701.65735722 -78.68349766 714.62790006 -126 721 C-126.96953613 721.13422363 -127.93907227 721.26844727 -128.93798828 721.40673828 C-198.60301284 730.60826763 -271.80149492 716.60809517 -335 687 C-336.41490723 686.33895264 -336.41490723 686.33895264 -337.85839844 685.66455078 C-358.77860008 675.79024489 -378.42845399 663.77967682 -397 650 C-397.58426758 649.5673584 -398.16853516 649.1347168 -398.77050781 648.68896484 C-414.67378736 636.84115813 -429.49970697 623.68781285 -443.51391602 609.67138672 C-445.05923066 608.1282647 -446.61240446 606.59335694 -448.16601562 605.05859375 C-456.94152217 596.33221311 -464.69375792 586.99952348 -472 577 C-469.06483184 578.30338299 -467.21088527 579.59730584 -465.15234375 582.0546875 C-464.37733521 582.9672229 -464.37733521 582.9672229 -463.58666992 583.89819336 C-463.04244385 584.55053955 -462.49821777 585.20288574 -461.9375 585.875 C-460.76684892 587.24974108 -459.59495763 588.62342696 -458.421875 589.99609375 C-457.84115234 590.67784668 -457.26042969 591.35959961 -456.66210938 592.06201172 C-445.40194841 605.1911477 -433.3072911 618.18305713 -419.6796875 628.87890625 C-417.23540748 630.81366434 -414.87748621 632.82402068 -412.52758789 634.87158203 C-388.80730422 655.43426 -361.23988832 671.4959606 -333 685 C-332.2771582 685.34885254 -331.55431641 685.69770508 -330.80957031 686.05712891 C-281.28386844 709.77621236 -226.23704649 721.27185386 -171.4375 721.1875 C-170.70054901 721.18689575 -169.96359802 721.1862915 -169.20431519 721.18566895 C-111.92823269 721.05922317 -54.33688636 707.28439897 -3 682 C-1.64551758 681.33315186 -1.64551758 681.33315186 -0.26367188 680.65283203 C41.07935642 660.07903777 80.71597053 631.06890612 111 596 C112.02867187 594.89591797 112.02867187 594.89591797 113.078125 593.76953125 C119.72656731 586.6308261 125.5667771 578.92672047 131.40527344 571.12548828 C132.86634089 569.17814394 134.34126418 567.24228911 135.8203125 565.30859375 C171.29542603 518.49249573 193.5129759 461.99452889 203.75 404.4375 C203.94875732 403.34010498 204.14751465 402.24270996 204.35229492 401.11206055 C207.59628063 381.94153718 208.35226935 362.66140372 208.31567383 343.24951172 C208.31251477 339.76628213 208.33609518 336.28390693 208.36132812 332.80078125 C208.41944795 312.19060478 206.681935 291.68798391 202.75 271.4375 C202.54020508 270.33857422 202.33041016 269.23964844 202.11425781 268.10742188 C196.39310073 239.16315531 187.27867855 210.81643226 175 184 C174.60119629 183.10958008 174.20239258 182.21916016 173.79150391 181.30175781 C163.57999377 158.56396782 150.98641142 136.93144079 136 117 C135.55962402 116.41089844 135.11924805 115.82179688 134.66552734 115.21484375 C131.82927574 111.43458444 128.93343429 107.70564629 126 104 C125.26265625 103.06800781 124.5253125 102.13601562 123.765625 101.17578125 C118.56678019 94.71409648 113.0500078 88.5870766 107.40283203 82.52050781 C106.01254219 81.01359428 104.64236717 79.49074754 103.27734375 77.9609375 C96.91236425 70.85050995 90.15257152 64.31810484 83 58 C82.42765625 57.48824219 81.8553125 56.97648437 81.265625 56.44921875 C60.67529184 38.05220369 37.97503843 22.64967891 14 9 C12.61173504 8.20355038 11.22371301 7.40667715 9.8359375 6.609375 C6.56206696 4.73114171 3.28283655 2.8625285 0 1 C0 0.67 0 0.34 0 0 Z " fill="#010E13" transform="translate(588,41)"/>
<path d="M0 0 C-4.81688034 1.61293414 -7.99690971 -0.62088854 -12.3125 -2.75 C-21.32005571 -6.99982785 -30.49284023 -10.50376166 -39.875 -13.8125 C-40.52159576 -14.04247681 -41.16819153 -14.27245361 -41.8343811 -14.50939941 C-66.67515409 -23.3244136 -92.0038148 -29.14518814 -118.10839844 -32.61376953 C-120.57768283 -32.94359121 -123.04299237 -33.29101185 -125.5078125 -33.65234375 C-139.47550595 -35.64981139 -153.4137394 -36.20548144 -167.5 -36.1875 C-168.23645752 -36.18756042 -168.97291504 -36.18762085 -169.73168945 -36.18768311 C-181.75412796 -36.17373671 -193.61970037 -35.61157255 -205.57421875 -34.26464844 C-207.81893502 -34.01975387 -210.06215769 -33.81755767 -212.3125 -33.6328125 C-250.8661255 -30.26623395 -289.57363866 -18.79498995 -324.55078125 -2.53125 C-327.14093844 -1.38137274 -329.28249478 -0.61570511 -332 0 C-332 0.66 -332 1.32 -332 2 C-333.10214844 2.46148437 -334.20429688 2.92296875 -335.33984375 3.3984375 C-348.97283286 9.21604789 -362.69186102 15.69868548 -373.9453125 25.52734375 C-376 27 -376 27 -379.171875 28.28515625 C-384.00850171 30.26412662 -387.97267998 33.37442173 -392.125 36.5 C-392.9603125 37.12221436 -393.795625 37.74442871 -394.65625 38.38549805 C-401.05735942 43.1943315 -407.19902625 48.22907058 -413.22558594 53.49682617 C-414.59992523 54.66108141 -415.99885128 55.79634583 -417.40722656 56.91918945 C-424.11359958 62.27362572 -430.25225833 67.9695281 -436.27197266 74.06616211 C-437.75756468 75.57015839 -439.25115205 77.06584905 -440.74609375 78.56054688 C-446.03700645 83.87039204 -451.17518705 89.26137359 -456 95 C-456.50917969 95.60239502 -457.01835937 96.20479004 -457.54296875 96.82543945 C-493.86951113 140.18386208 -520.94351156 190.51443049 -535.29052734 245.29394531 C-535.89348516 247.5937335 -536.51421119 249.88730399 -537.14453125 252.1796875 C-545.19570447 282.5239499 -548.25233798 313.32512968 -548.3125 344.625 C-548.31617584 345.53522919 -548.31985168 346.44545837 -548.32363892 347.38327026 C-548.35176371 360.69201355 -547.53289778 373.78131992 -546 387 C-545.91801361 387.71089783 -545.83602722 388.42179565 -545.7515564 389.15423584 C-539.86915286 438.97184968 -525.0107225 492.98391625 -497 535 C-497.33 535.99 -497.66 536.98 -498 538 C-504.03009989 527.50315945 -509.82349823 516.94616919 -515 506 C-515.37205566 505.21963379 -515.74411133 504.43926758 -516.12744141 503.63525391 C-539.5812626 453.84834509 -550.4870948 399.2889689 -550.3125 344.4375 C-550.30976578 342.65209808 -550.30976578 342.65209808 -550.30697632 340.83062744 C-550.26190902 323.34598513 -549.79150512 306.28754943 -547 289 C-546.83371094 287.89333984 -546.66742187 286.78667969 -546.49609375 285.64648438 C-540.14416452 243.79432843 -526.70886546 203.43878532 -507 166 C-506.61827637 165.26313965 -506.23655273 164.5262793 -505.84326172 163.76708984 C-495.99296771 144.83390388 -484.28780963 126.71321385 -471 110 C-470.2879541 109.09725342 -470.2879541 109.09725342 -469.56152344 108.17626953 C-459.1030742 94.94864161 -447.82614959 82.75114431 -435.95892334 70.78469849 C-434.96241933 69.7794995 -433.96728886 68.77293656 -432.97369385 67.76486206 C-426.33266452 61.03856847 -419.41386194 54.86739883 -412 49 C-410.74549989 47.97497226 -409.49264696 46.94792192 -408.2421875 45.91796875 C-351.92042078 0.05502122 -285.32099392 -25.68012627 -214 -36 C-212.96649414 -36.14985352 -211.93298828 -36.29970703 -210.86816406 -36.45410156 C-139.26955378 -46.15055474 -64.77714897 -30.47061876 0 0 Z " fill="#010E13" transform="translate(585,38)"/>
<path d="M0 0 C0 0.66 0 1.32 0 2 C-1.32 2.33 -2.64 2.66 -4 3 C-4 3.66 -4 4.32 -4 5 C-5.10214844 5.46148437 -6.20429688 5.92296875 -7.33984375 6.3984375 C-21.83541556 12.58413813 -35.97584263 19.6544287 -48 30 C-48.33 29.34 -48.66 28.68 -49 28 C-37.83961149 16.07207548 -20.36257283 9.31763519 -6 2 C-5.28030029 1.61835693 -4.56060059 1.23671387 -3.8190918 0.84350586 C-2 0 -2 0 0 0 Z " fill="#031319" transform="translate(257,35)"/>
<path d="M0 0 C0 0.66 0 1.32 0 2 C-1.32 2.33 -2.64 2.66 -4 3 C-4 3.66 -4 4.32 -4 5 C-5.93232821 5.86580287 -7.87107194 6.71729941 -9.8125 7.5625 C-10.89144531 8.03816406 -11.97039062 8.51382813 -13.08203125 9.00390625 C-16 10 -16 10 -19 9 C-16.2118978 7.4933028 -13.41896042 5.99580196 -10.625 4.5 C-9.8309375 4.07074219 -9.036875 3.64148437 -8.21875 3.19921875 C-7.45820313 2.79316406 -6.69765625 2.38710938 -5.9140625 1.96875 C-4.8614624 1.40317383 -4.8614624 1.40317383 -3.78759766 0.82617188 C-2 0 -2 0 0 0 Z " fill="#0A2935" transform="translate(257,35)"/>
<path d="M0 0 C0 0.66 0 1.32 0 2 C-1.93356782 2.69848264 -3.87202298 3.38344814 -5.8125 4.0625 C-6.89144531 4.44535156 -7.97039062 4.82820313 -9.08203125 5.22265625 C-12 6 -12 6 -15 5 C-13.06891037 3.96709159 -11.129882 2.94901328 -9.1875 1.9375 C-8.10855469 1.36902344 -7.02960938 0.80054688 -5.91796875 0.21484375 C-3 -1 -3 -1 0 0 Z " fill="#187CA2" transform="translate(268,33)"/>
<path d="M0 0 C0.66 0.66 1.32 1.32 2 2 C0.37615858 3.14747465 -1.24911056 4.2929291 -2.875 5.4375 C-4.23238281 6.39462891 -4.23238281 6.39462891 -5.6171875 7.37109375 C-8 9 -8 9 -10 10 C-9.32942834 7.06624899 -8.5040235 5.38058917 -6.0859375 3.5546875 C-4.08267818 2.3159229 -2.06666551 1.12945673 0 0 Z " fill="#0B2F3D" transform="translate(218,55)"/>
<path d="M0 0 C0.66 0.33 1.32 0.66 2 1 C0.21326795 2.5058745 -1.57953508 4.0045485 -3.375 5.5 C-4.87160156 6.75296875 -4.87160156 6.75296875 -6.3984375 8.03125 C-9 10 -9 10 -11 10 C-9.54144353 6.31353859 -7.69770955 4.83856029 -4.375 2.75 C-3.55773437 2.22921875 -2.74046875 1.7084375 -1.8984375 1.171875 C-1.27195313 0.78515625 -0.64546875 0.3984375 0 0 Z " fill="#227FA3" transform="translate(205,65)"/>
</svg>
